<svg width="138" height="114" viewBox="0 0 138 114" fill="none" xmlns="http://www.w3.org/2000/svg">
<path d="M69 75.75C65.2916 75.75 61.6665 76.8497 58.5831 78.9099C55.4996 80.9702 53.0964 83.8986 51.6773 87.3247C50.2581 90.7508 49.8868 94.5208 50.6103 98.1579C51.3338 101.795 53.1195 105.136 55.7418 107.758C58.364 110.38 61.7049 112.166 65.3421 112.89C68.9792 113.613 72.7492 113.242 76.1753 111.823C79.6014 110.404 82.5298 108 84.5901 104.917C86.6503 101.834 87.75 98.2084 87.75 94.5C87.7467 89.5282 85.7701 84.761 82.2546 81.2455C78.739 77.7299 73.9718 75.7534 69 75.75Z" fill="black"/>
<path d="M29.3211 54.8577C27.568 56.6205 26.5869 59.0075 26.5938 61.4937C26.6006 63.9798 27.5948 66.3615 29.3576 68.1146C31.1205 69.8678 33.5075 70.8488 35.9937 70.842C38.4798 70.8351 40.8614 69.8409 42.6146 68.0781C49.6802 61.2092 59.1459 57.3665 69.0001 57.3665C78.8542 57.3665 88.3199 61.2092 95.3855 68.0781C96.254 68.9578 97.2891 69.6554 98.4304 70.1303C99.5716 70.6051 100.796 70.8477 102.032 70.8438C103.884 70.8433 105.694 70.2946 107.234 69.2668C108.774 68.2389 109.976 66.778 110.687 65.0683C111.398 63.3586 111.586 61.4766 111.229 59.6598C110.872 57.8429 109.984 56.1726 108.679 54.8594C87.4021 33.4344 50.598 33.4344 29.3211 54.8577Z" fill="black"/>
<path d="M135.047 28.5271C126.442 19.7334 116.167 12.7467 104.826 7.97686C93.4842 3.207 81.3044 0.75 69.0008 0.75C56.6972 0.75 44.5175 3.207 33.1761 7.97686C21.8347 12.7467 11.56 19.7334 2.95472 28.5271C1.20647 30.2947 0.23202 32.6845 0.245749 35.1706C0.259477 37.6567 1.26025 40.0356 3.02792 41.7839C4.79559 43.5321 7.18535 44.5066 9.67148 44.4928C12.1576 44.4791 14.5365 43.4783 16.2847 41.7107C44.5928 13.073 93.4088 13.073 121.717 41.7107C123.465 43.4783 125.844 44.4791 128.33 44.4928C130.816 44.5066 133.206 43.5321 134.974 41.7839C136.741 40.0356 137.742 37.6567 137.756 35.1706C137.77 32.6845 136.795 30.2947 135.047 28.5271Z" fill="black"/>
</svg>
