<svg width="72" height="122" viewBox="0 0 72 122" fill="none" xmlns="http://www.w3.org/2000/svg">
<path d="M58.1538 0H13.8462C6.20308 0 0 6.21091 0 13.8636V108.136C0 115.789 6.20308 122 13.8462 122H58.1538C65.7969 122 72 115.789 72 108.136V13.8636C72 6.21091 65.7969 0 58.1538 0ZM36 116.455C31.4031 116.455 27.6923 112.739 27.6923 108.136C27.6923 103.534 31.4031 99.8182 36 99.8182C40.5969 99.8182 44.3077 103.534 44.3077 108.136C44.3077 112.739 40.5969 116.455 36 116.455ZM60.9231 94.2727H11.0769V16.6364H60.9231V94.2727Z" fill="black"/>
</svg>
