<?xml version="1.0" ?><svg viewBox="0 0 512 512" xmlns="http://www.w3.org/2000/svg"><title/><g id="Solid"><path d="M216,336a72,72,0,1,0,72,72A72.08124,72.08124,0,0,0,216,336Zm24,64v16H224v16h16v16H224v16H208V448H192V432h16V416H192V400h7.355l-21.60205-27.00293,12.49414-9.99414L216,395.19336l25.75293-32.19043,12.49414,9.99414L232.645,400Z"/><path d="M457.97778,376h14.49463a72.37559,72.37559,0,0,0-40.54809-35.89746A88.40824,88.40824,0,0,1,457.97778,376Z"/><path d="M128,408a88.09957,88.09957,0,0,1,88-88h32a87.76277,87.76277,0,0,1,63.96338,27.62793A87.19592,87.19592,0,0,1,376,320h32a87.78731,87.78731,0,0,1,24,3.32666V104H384a24.0275,24.0275,0,0,1-24-24V32H88a8.00917,8.00917,0,0,0-8,8V472a8.00917,8.00917,0,0,0,8,8h77.4624A87.95674,87.95674,0,0,1,128,408ZM408,296H248V280H408Zm0-32H200V248H408Zm0-32H264V216H408Zm0-48v16H320V184ZM232,92.68652l24,24L300.68579,72H280V56h48v48H312V83.31421l-56,55.99927-24-24-50.34277,50.34375-11.31446-11.31446ZM104,184H304v16H104Zm0,32H248v16H104Zm0,32h80v16H104Zm0,32H232v16H104Zm0,32h48v16H104Z"/><path d="M271.9209,340.10156A88.40762,88.40762,0,0,1,297.97583,376h14.49658A72.37461,72.37461,0,0,0,271.9209,340.10156Z"/><path d="M271.9209,475.89844A72.37461,72.37461,0,0,0,312.47241,440H297.97583A88.40762,88.40762,0,0,1,271.9209,475.89844Z"/><path d="M431.92432,475.89746A72.37559,72.37559,0,0,0,472.47241,440H457.97778A88.40824,88.40824,0,0,1,431.92432,475.89746Z"/><path d="M478.18579,392H462.54a88.28764,88.28764,0,0,1,0,32h15.64575a71.46123,71.46123,0,0,0,0-32Z"/><path d="M302.53809,392a88.28764,88.28764,0,0,1,0,32h15.6477a71.46123,71.46123,0,0,0,0-32Z"/><path d="M376.002,336a71.36331,71.36331,0,0,0-54.01977,24.39844,87.83134,87.83134,0,0,1,0,95.20312A71.36331,71.36331,0,0,0,376.002,480a72,72,0,1,0,0-144Zm24,48h-24a8,8,0,0,0,0,16,23.99787,23.99787,0,0,1,8,46.62378V464h-16V448h-16V432h24a8,8,0,1,0,0-16,23.99787,23.99787,0,0,1-8-46.62378V352h16v16h16Z"/><path d="M384,88h36.68555L376,43.31445V80A8.00917,8.00917,0,0,0,384,88Z"/></g></svg>